<mxfile host="app.diagrams.net" modified="2021-04-16T06:26:10.512Z" agent="5.0 (Windows NT 10.0; Win64; x64) AppleWebKit/537.36 (KHTML, like Gecko) Chrome/88.0.4324.182 Safari/537.36" etag="mUwk1o3Ibt6DyH8cvGPK" version="14.5.10" type="github">
  <diagram id="a9gVPlsvLm83Nb3x2gXI" name="Page-1">
    <mxGraphModel dx="1151" dy="673" grid="1" gridSize="10" guides="1" tooltips="1" connect="1" arrows="1" fold="1" page="1" pageScale="1" pageWidth="827" pageHeight="1169" math="0" shadow="0">
      <root>
        <mxCell id="0" />
        <mxCell id="1" parent="0" />
        <mxCell id="0CdFS4vj2rI9UAj14wgb-1" value="&lt;b&gt;&lt;font style=&quot;font-size: 18px&quot;&gt;游记助手系统&lt;/font&gt;&lt;/b&gt;" style="rounded=1;whiteSpace=wrap;html=1;fillColor=#4A98FF;" vertex="1" parent="1">
          <mxGeometry x="190" y="413" width="469" height="40" as="geometry" />
        </mxCell>
        <mxCell id="0CdFS4vj2rI9UAj14wgb-2" style="edgeStyle=orthogonalEdgeStyle;rounded=0;orthogonalLoop=1;jettySize=auto;html=1;exitX=0.5;exitY=1;exitDx=0;exitDy=0;" edge="1" parent="1" source="0CdFS4vj2rI9UAj14wgb-1" target="0CdFS4vj2rI9UAj14wgb-1">
          <mxGeometry relative="1" as="geometry" />
        </mxCell>
        <mxCell id="0CdFS4vj2rI9UAj14wgb-3" value="&lt;b&gt;&lt;font style=&quot;font-size: 14px&quot;&gt;平台管理端&lt;/font&gt;&lt;/b&gt;" style="rounded=1;whiteSpace=wrap;html=1;fillColor=#9E9E9E;" vertex="1" parent="1">
          <mxGeometry x="190" y="140" width="120" height="50" as="geometry" />
        </mxCell>
        <mxCell id="0CdFS4vj2rI9UAj14wgb-4" value="&lt;span style=&quot;line-height: 150%&quot;&gt;&lt;font style=&quot;font-size: 14px&quot;&gt;景区管理&lt;/font&gt;&lt;/span&gt;" style="rounded=0;whiteSpace=wrap;html=1;" vertex="1" parent="1">
          <mxGeometry x="190" y="190" width="120" height="40" as="geometry" />
        </mxCell>
        <mxCell id="0CdFS4vj2rI9UAj14wgb-5" value="&lt;span style=&quot;line-height: 150%&quot;&gt;&lt;font style=&quot;font-size: 14px&quot;&gt;用户管理&lt;/font&gt;&lt;/span&gt;" style="rounded=0;whiteSpace=wrap;html=1;" vertex="1" parent="1">
          <mxGeometry x="190" y="230" width="120" height="40" as="geometry" />
        </mxCell>
        <mxCell id="0CdFS4vj2rI9UAj14wgb-6" value="&lt;span style=&quot;line-height: 150%&quot;&gt;&lt;font style=&quot;font-size: 14px&quot;&gt;游记管理&lt;/font&gt;&lt;/span&gt;" style="rounded=0;whiteSpace=wrap;html=1;" vertex="1" parent="1">
          <mxGeometry x="190" y="270" width="120" height="40" as="geometry" />
        </mxCell>
        <mxCell id="0CdFS4vj2rI9UAj14wgb-7" value="&lt;span style=&quot;line-height: 150%&quot;&gt;&lt;font style=&quot;font-size: 14px&quot;&gt;投诉管理&lt;/font&gt;&lt;/span&gt;" style="rounded=0;whiteSpace=wrap;html=1;" vertex="1" parent="1">
          <mxGeometry x="190" y="310" width="120" height="40" as="geometry" />
        </mxCell>
        <mxCell id="0CdFS4vj2rI9UAj14wgb-8" value="&lt;b&gt;&lt;font style=&quot;font-size: 14px&quot;&gt;景区管理端&lt;/font&gt;&lt;/b&gt;" style="rounded=1;whiteSpace=wrap;html=1;fillColor=#9E9E9E;" vertex="1" parent="1">
          <mxGeometry x="366" y="140" width="120" height="50" as="geometry" />
        </mxCell>
        <mxCell id="0CdFS4vj2rI9UAj14wgb-9" value="&lt;span style=&quot;line-height: 150%&quot;&gt;&lt;font style=&quot;font-size: 14px&quot;&gt;游记列表&lt;/font&gt;&lt;/span&gt;" style="rounded=0;whiteSpace=wrap;html=1;" vertex="1" parent="1">
          <mxGeometry x="366" y="190" width="120" height="40" as="geometry" />
        </mxCell>
        <mxCell id="0CdFS4vj2rI9UAj14wgb-13" value="&lt;b&gt;&lt;font style=&quot;font-size: 14px&quot;&gt;客户端&lt;/font&gt;&lt;/b&gt;" style="rounded=1;whiteSpace=wrap;html=1;fillColor=#9E9E9E;" vertex="1" parent="1">
          <mxGeometry x="539" y="143" width="120" height="50" as="geometry" />
        </mxCell>
        <mxCell id="0CdFS4vj2rI9UAj14wgb-14" value="&lt;span style=&quot;line-height: 150%&quot;&gt;&lt;font style=&quot;font-size: 14px&quot;&gt;撰写游记&lt;/font&gt;&lt;/span&gt;" style="rounded=0;whiteSpace=wrap;html=1;" vertex="1" parent="1">
          <mxGeometry x="539" y="193" width="120" height="40" as="geometry" />
        </mxCell>
        <mxCell id="0CdFS4vj2rI9UAj14wgb-15" value="&lt;span style=&quot;line-height: 150%&quot;&gt;&lt;font style=&quot;font-size: 14px&quot;&gt;游记列表&lt;/font&gt;&lt;/span&gt;" style="rounded=0;whiteSpace=wrap;html=1;" vertex="1" parent="1">
          <mxGeometry x="539" y="233" width="120" height="40" as="geometry" />
        </mxCell>
        <mxCell id="0CdFS4vj2rI9UAj14wgb-16" value="&lt;span style=&quot;line-height: 150%&quot;&gt;&lt;font style=&quot;font-size: 14px&quot;&gt;游记详情&lt;/font&gt;&lt;/span&gt;" style="rounded=0;whiteSpace=wrap;html=1;" vertex="1" parent="1">
          <mxGeometry x="539" y="273" width="120" height="40" as="geometry" />
        </mxCell>
        <mxCell id="0CdFS4vj2rI9UAj14wgb-17" value="&lt;span style=&quot;line-height: 150%&quot;&gt;&lt;font style=&quot;font-size: 14px&quot;&gt;系统设置&lt;/font&gt;&lt;/span&gt;" style="rounded=0;whiteSpace=wrap;html=1;" vertex="1" parent="1">
          <mxGeometry x="190" y="350" width="120" height="40" as="geometry" />
        </mxCell>
        <mxCell id="0CdFS4vj2rI9UAj14wgb-18" value="&lt;span style=&quot;line-height: 150%&quot;&gt;&lt;font style=&quot;font-size: 14px&quot;&gt;点赞、收藏&lt;/font&gt;&lt;/span&gt;" style="rounded=0;whiteSpace=wrap;html=1;" vertex="1" parent="1">
          <mxGeometry x="539" y="313" width="120" height="40" as="geometry" />
        </mxCell>
        <mxCell id="0CdFS4vj2rI9UAj14wgb-19" value="&lt;span style=&quot;line-height: 150%&quot;&gt;&lt;font style=&quot;font-size: 14px&quot;&gt;投诉&lt;/font&gt;&lt;/span&gt;" style="rounded=0;whiteSpace=wrap;html=1;" vertex="1" parent="1">
          <mxGeometry x="539" y="353" width="120" height="40" as="geometry" />
        </mxCell>
      </root>
    </mxGraphModel>
  </diagram>
</mxfile>
